<?xml version="1.0" standalone="no"?>
<!DOCTYPE svg PUBLIC "-//W3C//DTD SVG 20010904//EN"
 "http://www.w3.org/TR/2001/REC-SVG-20010904/DTD/svg10.dtd">
<svg version="1.0" xmlns="http://www.w3.org/2000/svg"
 width="920.000000pt" height="512.000000pt" viewBox="0 0 920.000000 512.000000"
 preserveAspectRatio="xMidYMid meet">

<g transform="translate(0.000000,512.000000) scale(0.100000,-0.100000)"
fill="#000000" stroke="none">
<path d="M4410 5023 c-723 -74 -1343 -421 -1772 -991 -249 -331 -406 -707
-475 -1135 -25 -158 -25 -545 0 -707 138 -885 693 -1604 1502 -1948 494 -209
1081 -250 1604 -111 487 129 938 415 1259 797 305 365 493 777 567 1247 26
158 30 462 11 635 -106 921 -699 1701 -1555 2045 -208 83 -445 142 -670 164
-95 10 -390 13 -471 4z m410 -293 c753 -67 1418 -519 1761 -1198 206 -407 279
-891 205 -1353 -170 -1053 -1092 -1839 -2160 -1839 -495 0 -1003 185 -1381
502 -432 362 -691 826 -781 1400 -20 129 -23 428 -5 558 68 500 267 917 605
1268 345 358 805 592 1281 651 182 23 307 25 475 11z"/>
<path d="M5145 4309 c-516 -10 -563 -16 -708 -91 -138 -72 -241 -193 -294
-345 -26 -77 -27 -83 -32 -395 -3 -174 -9 -319 -13 -323 -3 -4 -75 -6 -158 -6
-83 1 -167 -1 -186 -5 l-34 -6 0 -294 0 -294 195 0 195 0 0 -880 0 -880 148
-1 c81 0 261 -3 400 -5 l252 -5 0 885 0 886 270 0 c149 0 270 3 270 8 1 4 18
139 38 299 l38 293 -305 2 -306 3 0 210 c0 203 1 211 24 248 12 21 42 48 65
60 38 21 56 22 279 25 l237 4 0 303 c0 234 -3 304 -12 307 -7 2 -170 0 -363
-3z"/>
</g>
</svg>
