<?xml version="1.0" standalone="no"?>
<!DOCTYPE svg PUBLIC "-//W3C//DTD SVG 20010904//EN"
 "http://www.w3.org/TR/2001/REC-SVG-20010904/DTD/svg10.dtd">
<svg version="1.0" xmlns="http://www.w3.org/2000/svg"
 width="800.000000pt" height="800.000000pt" viewBox="0 0 800.000000 800.000000"
 preserveAspectRatio="xMidYMid meet">

<g transform="translate(0.000000,800.000000) scale(0.100000,-0.100000)"
fill="#000000" stroke="none">
<path d="M0 4000 l0 -4000 4000 0 4000 0 0 4000 0 4000 -4000 0 -4000 0 0
-4000z m5680 3115 c324 -40 602 -157 845 -356 332 -272 533 -638 589 -1074 24
-179 24 -3177 1 -3365 -49 -390 -216 -726 -492 -990 -266 -255 -572 -399 -943
-445 -187 -23 -3173 -23 -3360 0 -436 54 -803 255 -1079 590 -194 235 -315
519 -356 840 -23 180 -23 3179 0 3365 49 390 194 690 470 966 270 270 573 419
952 468 169 22 3196 22 3373 1z"/>
<path d="M2275 6855 c-438 -72 -822 -362 -1015 -768 -57 -119 -104 -276 -120
-397 -8 -59 -10 -583 -7 -1745 3 -1839 -2 -1683 69 -1890 138 -405 461 -723
869 -858 199 -66 80 -62 1939 -62 l1695 0 105 27 c359 91 637 285 840 587 100
149 187 381 210 561 8 59 10 585 8 1745 l-3 1660 -27 100 c-72 270 -185 471
-368 655 -184 183 -386 297 -654 368 l-101 27 -1680 1 c-1346 2 -1696 0 -1760
-11z m3599 -751 c167 -59 278 -245 246 -414 -31 -162 -150 -280 -314 -311
-108 -20 -239 23 -321 106 -146 146 -145 388 1 530 104 102 253 136 388 89z
m-1748 -484 c421 -37 770 -206 1061 -514 437 -462 560 -1154 308 -1741 -115
-267 -297 -496 -535 -675 -106 -79 -330 -195 -455 -235 -860 -277 -1778 194
-2054 1055 -55 173 -73 294 -73 490 1 245 36 422 125 630 89 208 207 379 369
536 273 265 624 425 991 453 148 12 142 12 263 1z"/>
<path d="M3790 5104 c-329 -59 -640 -294 -792 -599 -91 -181 -123 -333 -115
-549 10 -288 108 -522 306 -728 218 -229 496 -348 812 -348 313 0 595 120 810
346 219 231 318 494 306 818 -10 288 -108 522 -306 728 -96 101 -182 166 -301
227 -172 88 -318 122 -519 120 -69 -1 -160 -7 -201 -15z"/>
</g>
</svg>
